<?xml version="1.0" standalone="no"?>
<!DOCTYPE svg PUBLIC "-//W3C//DTD SVG 20010904//EN"
 "http://www.w3.org/TR/2001/REC-SVG-20010904/DTD/svg10.dtd">
<svg version="1.0" xmlns="http://www.w3.org/2000/svg"
 width="512.000000pt" height="512.000000pt" viewBox="0 0 512.000000 512.000000"
 preserveAspectRatio="xMidYMid meet">

<g transform="translate(0.000000,512.000000) scale(0.100000,-0.100000)"
fill="#000000" stroke="none">
<path d="M3740 3925 c-176 -57 -228 -285 -95 -415 l45 -44 -41 -22 -40 -23
-45 29 c-153 97 -377 134 -546 91 -92 -24 -158 -56 -262 -128 l-78 -55 -42 31
c-198 149 -382 198 -587 156 -305 -61 -535 -277 -620 -580 -10 -34 -14 -102
-13 -215 0 -150 3 -173 28 -255 15 -49 40 -118 56 -152 18 -39 24 -63 17 -63
-7 0 -52 11 -102 25 -49 14 -105 25 -124 25 -26 0 -116 -48 -381 -201 -307
-176 -350 -204 -365 -235 -32 -67 9 -132 97 -154 l48 -12 -20 -28 c-120 -169
-3 -400 203 -400 57 0 59 -1 53 -22 -14 -54 -17 -95 -7 -120 15 -39 68 -70
108 -64 17 2 159 78 315 168 156 91 309 179 341 197 32 18 64 43 72 54 7 12
32 92 55 177 22 85 43 161 45 168 3 8 27 -6 67 -40 148 -125 389 -274 605
-374 66 -30 132 -54 150 -54 65 0 339 137 548 274 471 310 725 695 725 1103 0
46 -7 118 -16 160 -15 75 -13 110 6 98 5 -3 10 -18 10 -32 0 -42 38 -110 83
-148 77 -66 189 -80 277 -35 43 22 101 83 118 125 14 35 147 533 157 587 16
84 -54 212 -138 251 -50 24 -556 158 -612 163 -28 2 -70 -3 -95 -11z m355
-271 c137 -37 256 -71 263 -77 6 -5 12 -17 12 -27 0 -23 -129 -509 -141 -532
-12 -23 -58 -23 -66 -2 -3 9 6 63 20 119 15 57 27 113 27 125 0 12 -15 37 -34
56 -52 52 -82 48 -231 -37 l-125 -71 -20 23 c-10 13 -19 29 -20 34 0 6 54 41
120 78 133 76 160 102 160 157 0 71 -34 93 -216 140 -49 12 -68 31 -59 60 4
13 15 20 33 20 14 0 139 -30 277 -66z m-1758 -336 c72 -29 153 -83 232 -153
93 -83 125 -83 224 4 174 153 306 200 468 168 235 -46 416 -222 464 -452 19
-89 19 -141 0 -250 -62 -357 -381 -695 -900 -956 l-143 -72 -124 60 c-138 67
-275 148 -391 231 -61 44 -75 58 -65 67 7 7 164 98 348 204 359 205 413 246
438 328 15 51 15 118 -2 164 -41 116 -179 191 -294 159 -24 -6 -225 -116 -448
-245 l-404 -234 -35 69 c-102 203 -111 443 -23 622 46 93 164 208 260 253 144
68 279 80 395 33z m347 -730 c8 -14 6 -22 -9 -36 -21 -20 -755 -446 -759 -440
-35 54 -38 61 -25 69 321 193 739 428 758 426 13 -1 29 -10 35 -19z m-1191
-525 c97 -25 177 -51 177 -57 0 -6 -21 -90 -46 -186 l-46 -175 -192 -111
c-105 -61 -192 -110 -194 -108 -2 1 13 62 32 136 20 74 36 146 36 161 0 15
-12 40 -27 57 -24 25 -50 36 -173 69 l-145 38 55 31 c30 17 116 67 190 111 74
43 140 80 145 80 6 1 90 -20 188 -46z m-484 -422 c29 -18 4 -55 -64 -94 -66
-38 -97 -42 -109 -12 -9 26 3 40 67 78 65 38 83 42 106 28z"/>
</g>
</svg>
