<?xml version="1.0" standalone="no"?>
<!DOCTYPE svg PUBLIC "-//W3C//DTD SVG 20010904//EN"
 "http://www.w3.org/TR/2001/REC-SVG-20010904/DTD/svg10.dtd">
<svg version="1.0" xmlns="http://www.w3.org/2000/svg"
 width="512.000000pt" height="512.000000pt" viewBox="0 0 512.000000 512.000000"
 preserveAspectRatio="xMidYMid meet">

<g transform="translate(0.000000,512.000000) scale(0.100000,-0.100000)"
fill="#000000" stroke="none">
<path d="M20 2560 l0 -2540 2540 0 2540 0 0 2540 0 2540 -2540 0 -2540 0 0
-2540z m4915 1885 l0 -490 -2375 0 -2375 0 -3 480 c-1 264 0 486 3 493 3 10
484 12 2377 10 l2373 -3 0 -490z m3 -2457 l-3 -1803 -2375 0 -2375 0 -3 205
-2 205 780 780 780 780 450 -450 450 -450 695 695 695 695 0 -288 0 -287 85 0
85 0 0 450 0 450 -450 0 -450 0 0 -80 0 -80 325 0 c179 0 325 -3 325 -8 0 -4
-294 -301 -653 -660 l-652 -652 -445 445 c-245 245 -449 445 -455 445 -6 0
-357 -347 -780 -770 -423 -424 -773 -770 -777 -770 -5 0 -8 664 -8 1475 l0
1475 2380 0 2380 0 -2 -1802z"/>
<path d="M430 4445 l0 -85 80 0 80 0 0 85 0 85 -80 0 -80 0 0 -85z"/>
<path d="M760 4445 l0 -85 80 0 80 0 0 85 0 85 -80 0 -80 0 0 -85z"/>
<path d="M1084 4517 c-3 -8 -4 -45 -2 -83 l3 -69 83 -3 82 -3 0 86 0 85 -80 0
c-58 0 -82 -4 -86 -13z"/>
<path d="M1417 4523 c-4 -3 -7 -42 -7 -85 l0 -78 1640 0 1640 0 0 85 0 85
-1633 0 c-899 0 -1637 -3 -1640 -7z"/>
</g>
</svg>
