<?xml version="1.0" standalone="no"?>
<!DOCTYPE svg PUBLIC "-//W3C//DTD SVG 20010904//EN"
 "http://www.w3.org/TR/2001/REC-SVG-20010904/DTD/svg10.dtd">
<svg version="1.0" xmlns="http://www.w3.org/2000/svg"
 width="512.000000pt" height="512.000000pt" viewBox="0 0 512.000000 512.000000"
 preserveAspectRatio="xMidYMid meet">

<g transform="translate(0.000000,512.000000) scale(0.100000,-0.100000)"
fill="#000000" stroke="none">
<path d="M274 4940 c-104 -21 -193 -93 -241 -195 l-28 -60 0 -1785 0 -1785 28
-60 c37 -78 95 -137 171 -171 53 -24 77 -28 183 -32 l123 -5 0 87 0 86 -92 0
c-139 1 -193 26 -229 105 -18 38 -19 113 -19 1775 0 1662 1 1737 19 1775 22
49 48 73 98 91 57 20 3809 20 3866 0 85 -31 109 -76 115 -218 l5 -108 83 0 84
0 0 83 c0 161 -27 245 -105 322 -53 54 -103 80 -180 94 -70 13 -3816 14 -3881
1z"/>
<path d="M340 4525 l0 -85 85 0 85 0 0 85 0 85 -85 0 -85 0 0 -85z"/>
<path d="M687 4603 c-4 -3 -7 -42 -7 -85 l0 -78 85 0 85 0 0 85 0 85 -78 0
c-43 0 -82 -3 -85 -7z"/>
<path d="M1027 4603 c-4 -3 -7 -42 -7 -85 l0 -78 85 0 85 0 0 85 0 85 -78 0
c-43 0 -82 -3 -85 -7z"/>
<path d="M974 4260 c-143 -21 -257 -134 -284 -281 -7 -37 -9 -646 -8 -1800 l3
-1744 28 -60 c46 -99 117 -160 219 -189 48 -15 254 -16 1993 -14 l1940 3 47
22 c58 26 132 94 163 147 13 23 28 66 35 96 8 41 10 514 8 1810 l-3 1755 -27
57 c-51 109 -149 181 -270 199 -76 10 -3770 10 -3844 -1z m3905 -199 c18 -13
42 -42 52 -65 18 -39 19 -106 19 -1779 0 -1437 -2 -1743 -14 -1770 -17 -43
-78 -95 -118 -102 -18 -3 -893 -4 -1944 -3 l-1911 3 -36 28 c-20 15 -45 42
-55 60 -16 30 -17 137 -20 1752 -2 1224 0 1734 8 1770 12 57 32 84 81 114 l34
21 1935 -2 1935 -3 34 -24z"/>
<path d="M1022 3838 l3 -83 83 -3 82 -3 0 86 0 85 -85 0 -86 0 3 -82z"/>
<path d="M1370 3835 l0 -86 83 3 82 3 3 83 3 82 -86 0 -85 0 0 -85z"/>
<path d="M1710 3835 l0 -86 83 3 82 3 3 83 3 82 -86 0 -85 0 0 -85z"/>
<path d="M1022 3498 l3 -83 1878 -3 1877 -2 0 85 0 85 -1880 0 -1881 0 3 -82z"/>
<path d="M2592 3220 c-28 -27 -32 -43 -35 -178 l-2 -114 -78 -30 -78 -30 -88
84 c-94 91 -125 107 -169 84 -15 -8 -114 -102 -219 -208 -238 -240 -233 -220
-102 -353 l91 -93 -32 -80 -32 -80 -128 -4 c-120 -3 -130 -5 -154 -27 l-26
-24 0 -292 0 -292 26 -24 c24 -22 34 -24 154 -27 l129 -4 32 -80 32 -79 -92
-93 c-95 -97 -103 -114 -77 -164 8 -15 99 -111 203 -214 181 -180 191 -188
228 -188 36 0 47 7 130 90 l90 90 80 -35 80 -34 5 -132 c5 -128 6 -131 33
-155 l28 -24 274 0 c286 0 313 4 334 44 6 11 12 76 13 144 l3 123 80 33 80 33
91 -88 c137 -133 119 -138 371 114 252 251 246 231 112 371 l-90 95 19 38 c11
21 25 54 31 75 l12 36 127 4 c140 4 165 12 182 62 14 41 13 524 -1 566 -17 47
-56 60 -191 60 l-113 0 -33 82 -33 81 91 92 c130 133 137 112 -114 364 -254
254 -233 248 -369 113 -71 -71 -95 -89 -107 -82 -8 5 -45 21 -82 36 l-68 26 0
129 c0 128 0 130 -26 154 l-27 25 -287 0 c-274 0 -287 -1 -308 -20z m480 -269
c4 -138 10 -150 92 -177 28 -9 95 -36 149 -61 73 -34 104 -43 124 -38 15 3 63
42 108 85 l81 79 119 -119 119 -119 -82 -84 c-97 -100 -100 -112 -48 -215 18
-37 43 -97 55 -134 37 -111 38 -112 183 -118 l123 -5 3 -166 2 -167 -121 -3
c-117 -4 -122 -5 -144 -31 -13 -15 -33 -57 -45 -95 -13 -37 -38 -98 -56 -135
-51 -102 -48 -113 48 -214 l82 -85 -119 -119 -119 -120 -87 85 c-60 60 -94 85
-111 85 -13 0 -60 -17 -104 -38 -43 -22 -109 -49 -145 -61 -99 -32 -103 -40
-107 -182 l-4 -119 -169 0 -169 0 0 110 c0 60 -5 120 -11 134 -11 23 -65 53
-129 71 -14 3 -64 25 -112 47 -66 31 -93 39 -114 34 -15 -4 -64 -43 -109 -86
l-81 -79 -119 119 -119 119 82 84 c98 101 102 118 48 225 -18 37 -43 96 -55
132 -12 36 -28 73 -35 83 -20 26 -70 37 -173 37 l-93 0 0 170 0 170 118 0
c141 0 144 2 187 125 15 44 40 106 56 137 46 92 42 107 -53 205 l-82 84 119
119 119 119 82 -79 c46 -44 94 -82 108 -86 18 -4 53 7 123 39 54 25 122 53
150 62 83 26 93 46 93 181 l0 114 169 0 169 0 4 -119z"/>
<path d="M2758 2455 c-137 -34 -281 -137 -360 -259 -87 -136 -115 -337 -68
-491 74 -240 284 -406 532 -422 108 -7 189 8 288 53 200 92 330 282 346 504
16 211 -103 436 -291 549 -121 73 -304 100 -447 66z m322 -197 c174 -83 269
-259 240 -445 -54 -343 -467 -480 -716 -238 -162 159 -168 422 -13 590 86 94
191 136 324 132 80 -2 99 -7 165 -39z"/>
<path d="M1027 3153 c-4 -3 -7 -42 -7 -85 l0 -78 345 0 346 0 -3 83 -3 82
-336 3 c-184 1 -338 -1 -342 -5z"/>
<path d="M1022 2728 l3 -83 255 0 255 0 3 83 3 82 -261 0 -261 0 3 -82z"/>
<path d="M4270 595 l0 -85 255 0 255 0 0 85 0 85 -255 0 -255 0 0 -85z"/>
</g>
</svg>
