<?xml version="1.0" standalone="no"?>
<!DOCTYPE svg PUBLIC "-//W3C//DTD SVG 20010904//EN"
 "http://www.w3.org/TR/2001/REC-SVG-20010904/DTD/svg10.dtd">
<svg version="1.0" xmlns="http://www.w3.org/2000/svg"
 width="512.000000pt" height="512.000000pt" viewBox="0 0 512.000000 512.000000"
 preserveAspectRatio="xMidYMid meet">

<g transform="translate(0.000000,512.000000) scale(0.100000,-0.100000)"
fill="#000000" stroke="none">
<path d="M293 4890 c-111 -16 -212 -93 -261 -198 l-27 -57 0 -1560 0 -1560 28
-57 c34 -69 94 -131 162 -166 l50 -27 359 -3 c407 -3 406 -4 406 67 0 26 -7
44 -21 57 -20 18 -45 19 -368 24 -236 3 -352 9 -366 17 -33 19 -73 66 -89 105
-12 27 -16 73 -16 169 0 72 3 129 8 127 45 -24 92 -40 134 -48 69 -13 4467
-13 4536 0 42 8 89 24 135 48 4 2 7 -55 7 -127 0 -96 -4 -142 -16 -169 -16
-39 -56 -86 -89 -105 -15 -9 -481 -13 -1836 -17 -1769 -5 -1817 -6 -1838 -24
-14 -13 -21 -31 -21 -57 0 -71 -16 -69 523 -69 452 0 479 -1 475 -17 -3 -10
-51 -124 -107 -254 l-103 -237 -116 -4 c-107 -3 -122 -6 -171 -33 -104 -57
-160 -151 -169 -280 -4 -69 -1 -87 16 -122 12 -23 38 -51 59 -64 l38 -24 945
0 945 0 38 24 c21 13 47 41 59 64 17 35 20 53 16 122 -9 129 -65 223 -169 280
-49 27 -64 30 -171 33 l-116 4 -103 237 c-56 130 -104 244 -106 253 -5 17 50
18 958 20 l964 3 50 27 c68 35 128 97 162 166 l28 57 0 1560 0 1560 -27 57
c-51 109 -149 181 -270 199 -76 10 -4450 10 -4525 -1z m4579 -172 c34 -21 53
-41 72 -80 l26 -52 0 -1246 c0 -928 -3 -1256 -12 -1281 -17 -50 -45 -83 -91
-110 l-42 -24 -2265 0 c-2120 0 -2267 1 -2296 17 -43 24 -86 71 -101 110 -17
47 -17 2520 0 2563 24 62 78 111 138 125 19 4 1044 7 2279 7 l2245 -2 47 -27z
m-1991 -3693 c55 -126 102 -240 105 -252 l6 -23 -431 0 c-309 0 -431 3 -431
11 0 6 41 106 92 223 50 116 97 226 105 244 l13 32 221 -2 220 -3 100 -230z
m496 -442 c54 -25 88 -84 88 -152 l0 -56 -905 0 -905 0 0 56 c0 44 6 65 27 96
51 77 -1 73 876 73 709 0 787 -2 819 -17z"/>
<path d="M3639 4537 c-18 -12 -39 -34 -46 -47 -10 -19 -13 -133 -13 -466 l0
-441 23 -34 c40 -59 46 -60 601 -57 473 3 503 4 529 22 57 39 57 36 57 511 0
481 1 477 -63 515 -31 19 -54 20 -543 20 l-511 0 -34 -23z m1001 -512 l0 -385
-455 0 -455 0 0 385 0 385 455 0 455 0 0 -385z"/>
<path d="M3891 4204 c-28 -35 -26 -69 4 -99 23 -24 29 -25 165 -25 136 0 142
1 165 25 14 13 25 36 25 50 0 14 -11 37 -25 50 -23 24 -28 25 -169 25 -144 0
-145 0 -165 -26z"/>
<path d="M3891 3944 c-28 -35 -26 -69 4 -99 l24 -25 266 0 266 0 24 25 c14 13
25 36 25 50 0 14 -11 37 -25 50 l-24 25 -270 0 -270 0 -20 -26z"/>
<path d="M403 4440 c-18 -10 -40 -34 -50 -52 -17 -31 -18 -86 -18 -958 l0
-925 23 -36 c39 -63 63 -69 297 -69 234 0 258 6 297 69 l23 36 0 925 c0 872
-1 927 -18 958 -37 67 -56 72 -302 72 -201 0 -223 -2 -252 -20z m417 -1010 l0
-880 -165 0 -165 0 0 880 0 880 165 0 165 0 0 -880z"/>
<path d="M571 4064 c-24 -30 -26 -43 -10 -77 14 -30 48 -47 94 -47 46 0 80 17
94 47 16 34 14 47 -10 77 -18 23 -27 26 -84 26 -57 0 -66 -3 -84 -26z"/>
<path d="M573 3674 c-20 -20 -24 -31 -19 -57 9 -47 39 -67 101 -67 62 0 92 20
101 67 5 26 1 37 -19 57 -22 22 -35 26 -82 26 -47 0 -60 -4 -82 -26z"/>
<path d="M575 3285 c-14 -13 -25 -36 -25 -50 0 -14 11 -37 25 -50 20 -21 34
-25 80 -25 46 0 60 4 80 25 14 13 25 36 25 50 0 14 -11 37 -25 50 -20 21 -34
25 -80 25 -46 0 -60 -4 -80 -25z"/>
<path d="M592 2910 c-22 -9 -42 -46 -42 -76 0 -8 11 -26 25 -39 20 -21 34 -25
80 -25 47 0 60 4 82 26 20 20 24 31 19 57 -4 17 -13 38 -21 46 -17 17 -111 25
-143 11z"/>
<path d="M2500 4396 c-222 -120 -254 -149 -228 -203 7 -15 26 -34 42 -41 26
-13 33 -11 97 22 l69 36 1 -122 c0 -68 5 -139 12 -158 14 -41 52 -59 95 -44
39 14 51 59 51 202 l1 122 69 -36 c64 -33 71 -35 97 -22 41 19 59 60 42 95
-14 29 -229 160 -278 169 -15 3 -42 -5 -70 -20z"/>
<path d="M2329 3667 c-321 -185 -342 -197 -366 -220 -23 -20 -23 -21 -23 -364
0 -315 1 -344 18 -361 31 -31 579 -342 603 -342 24 0 570 311 601 342 17 17
18 44 18 361 l0 344 -24 22 c-33 31 -575 341 -596 341 -9 0 -113 -55 -231
-123z m432 -154 c104 -60 188 -110 188 -113 1 -3 -87 -56 -194 -117 l-194
-112 -195 112 c-116 67 -191 116 -186 121 17 17 365 215 379 216 8 0 99 -48
202 -107z m-281 -696 l0 -228 -22 12 c-13 7 -101 57 -195 111 l-173 100 0 228
0 229 195 -112 195 -112 0 -228z m550 224 l0 -229 -172 -100 c-95 -54 -183
-104 -195 -111 l-23 -12 0 228 1 228 192 111 c106 62 193 112 195 113 1 1 2
-102 2 -228z"/>
<path d="M1411 2754 c-19 -24 -21 -40 -21 -165 0 -76 4 -149 10 -163 10 -28
250 -176 286 -176 36 0 74 37 74 74 0 37 -20 59 -93 101 l-48 28 108 62 c59
34 118 71 131 83 46 44 15 122 -49 122 -19 0 -68 -22 -132 -59 -148 -86 -137
-87 -137 1 0 65 -3 77 -23 96 -33 31 -80 29 -106 -4z"/>
<path d="M3600 2760 c-16 -16 -20 -33 -20 -95 0 -41 -3 -75 -6 -75 -4 0 -58
29 -120 65 -71 41 -125 65 -144 65 -55 0 -87 -59 -60 -109 5 -10 56 -45 112
-76 156 -88 148 -78 91 -111 -73 -42 -93 -63 -93 -100 0 -36 37 -74 73 -74 23
0 242 125 275 157 21 21 22 30 22 173 0 147 -1 152 -25 175 -30 31 -77 33
-105 5z"/>
</g>
</svg>
